<svg width="951" height="951" viewBox="0 0 951 951" fill="none" xmlns="http://www.w3.org/2000/svg">
<circle cx="475.5" cy="475.5" r="475.5" fill="url(#paint0_linear_4901_210)" fill-opacity="0.76"/>
<circle cx="475.5" cy="475.5" r="475" stroke="#6750A4" stroke-opacity="0.08"/>
<circle cx="475.5" cy="475.5" r="475" stroke="#4F378A" stroke-opacity="0.08"/>
<path d="M547.42 365.773L685.061 229.258L730.941 274.763L593.3 411.277C584.249 420.233 577.067 430.872 572.167 442.585C567.268 454.298 564.745 466.854 564.745 479.535C564.745 492.216 567.268 504.772 572.167 516.484C577.067 528.197 584.249 538.836 593.3 547.792L730.941 684.307L685.061 729.812L547.42 593.297C538.39 584.32 527.663 577.197 515.854 572.337C504.045 567.477 491.385 564.976 478.6 564.976C465.814 564.976 453.154 567.477 441.345 572.337C429.536 577.197 418.809 584.32 409.779 593.297L272.138 729.812L226.434 684.132L364.075 547.618C373.126 538.662 380.307 528.023 385.207 516.31C390.107 504.598 392.629 492.041 392.629 479.36C392.629 466.68 390.107 454.123 385.207 442.411C380.307 430.698 373.126 420.059 364.075 411.103L226.434 275.286L272.314 229.781L409.955 366.296C428.255 384.304 453.017 394.366 478.797 394.268C504.576 394.17 529.26 383.92 547.42 365.773Z" fill="#222222"/>
<path d="M684.885 229.443L547.244 365.957C538.214 374.935 527.488 382.057 515.678 386.917C503.869 391.777 491.209 394.278 478.424 394.278C465.638 394.278 452.978 391.777 441.169 386.917C429.36 382.057 418.633 374.935 409.603 365.957L271.962 229.443L226.434 275.296L364.075 411.811C373.126 420.767 380.307 431.406 385.207 443.118C390.107 454.831 392.629 467.387 392.629 480.068C392.629 492.749 390.107 505.305 385.207 517.018C380.307 528.73 373.126 539.37 364.075 548.326L226.434 684.143L272.314 729.648L409.955 593.133C418.985 584.155 429.711 577.033 441.521 572.173C453.33 567.313 465.99 564.812 478.775 564.812C491.561 564.812 504.221 567.313 516.03 572.173C527.839 577.033 538.566 584.155 547.596 593.133L685.237 729.648L731.117 684.143L593.476 547.628C584.424 538.672 577.243 528.033 572.343 516.321C567.443 504.608 564.921 492.052 564.921 479.371C564.921 466.69 567.443 454.134 572.343 442.421C577.243 430.708 584.424 420.069 593.476 411.113L731.117 274.599L685.237 229.094L684.885 229.443Z" fill="#222222"/>
<path opacity="0.9" d="M735.473 273.818L686.252 225L654.259 256.731C631.201 279.673 603.804 297.876 573.639 310.296C543.474 322.716 511.134 329.109 478.473 329.109C445.812 329.109 413.472 322.716 383.307 310.296C353.142 297.876 325.745 279.673 302.686 256.731L271.22 225L222 273.818L253.993 305.549C277.124 328.419 295.477 355.592 307.999 385.51C320.522 415.428 326.968 447.503 326.968 479.897C326.968 512.291 320.522 544.366 307.999 574.285C295.477 604.203 277.124 631.376 253.993 654.245L222 685.977L271.22 734.795L303.213 703.063C326.272 680.121 353.669 661.919 383.834 649.499C413.999 637.079 446.339 630.685 479 630.685C511.661 630.685 544.001 637.079 574.166 649.499C604.331 661.919 631.728 680.121 654.787 703.063L686.78 734.795L736 685.977L704.007 654.245C680.876 631.376 662.523 604.203 650.001 574.285C637.478 544.366 631.032 512.291 631.032 479.897C631.032 447.503 637.478 415.428 650.001 385.51C662.523 355.592 680.876 328.419 704.007 305.549L735.473 273.818Z" fill="url(#paint1_linear_4901_210)"/>
<defs>
<linearGradient id="paint0_linear_4901_210" x1="127.5" y1="230.5" x2="951" y2="795.5" gradientUnits="userSpaceOnUse">
<stop offset="0.158645" stop-color="#664FF3"/>
<stop offset="1" stop-color="white"/>
</linearGradient>
<linearGradient id="paint1_linear_4901_210" x1="274.5" y1="275" x2="736" y2="735" gradientUnits="userSpaceOnUse">
<stop stop-color="white"/>
<stop offset="1" stop-color="#7063FF"/>
</linearGradient>
</defs>
</svg>
