<svg width="750" height="200" viewBox="0 0 750 200" fill="none" xmlns="http://www.w3.org/2000/svg">
<path d="M0 95.8662C0 62.0834 22.4457 33.3291 57.3257 33.3291C95.1772 33.3291 122.377 60.7577 113.326 104.049H19.7029C20.7073 114.573 25.6131 124.34 33.4554 131.429C41.2976 138.518 51.5086 142.417 62.08 142.358C72.0457 142.358 92.6629 136.918 97.8743 127.866L112.137 138.975C100.343 152.689 80.8686 158.678 60.0229 158.678C23.5886 158.632 0 126.678 0 95.8662ZM95.6343 88.1862C98.3314 73.2377 88.3657 49.6491 57.7829 49.6491C52.7469 49.6609 47.763 50.6691 43.1185 52.6157C38.4739 54.5622 34.2604 57.4085 30.7207 60.9907C27.181 64.5728 24.3852 68.82 22.4942 73.4875C20.6033 78.155 19.6546 83.1505 19.7029 88.1862H95.6343Z" fill="white"/>
<path d="M305.737 135.501V199.867H287.451V99.7067C287.469 87.4995 291.104 75.5714 297.898 65.4291C304.691 55.2867 314.337 47.3849 325.619 42.7218C336.9 38.0587 349.311 36.8433 361.282 39.2293C373.254 41.6152 384.25 47.4954 392.882 56.1272C401.514 64.759 407.394 75.7552 409.78 87.7269C412.166 99.6987 410.951 112.109 406.287 123.39C401.624 134.672 393.723 144.318 383.58 151.112C373.438 157.905 361.51 161.54 349.303 161.558C340.374 161.508 331.623 159.064 323.96 154.481C316.298 149.898 310.005 143.343 305.737 135.501ZM305.737 99.7067C305.719 108.33 308.258 116.766 313.033 123.946C317.808 131.127 324.605 136.731 332.564 140.05C340.523 143.369 349.288 144.254 357.75 142.592C366.212 140.931 373.992 136.798 380.105 130.716C386.219 124.635 390.392 116.877 392.098 108.424C393.804 99.9705 392.965 91.2013 389.688 83.2247C386.411 75.2481 380.842 68.4221 373.687 63.6095C366.531 58.7969 358.109 56.2138 349.485 56.1866C337.937 56.2342 326.871 60.8274 318.684 68.9722C310.496 77.117 305.845 88.1584 305.737 99.7067Z" fill="white"/>
<path d="M430.629 97.0103C430.647 84.8032 434.282 72.8751 441.076 62.7328C447.869 52.5904 457.515 44.6887 468.797 40.0255C480.078 35.3624 492.488 34.1471 504.46 36.533C516.432 38.9189 527.428 44.7991 536.06 53.4309C544.692 62.0627 550.572 73.0589 552.958 85.0306C555.344 97.0024 554.128 109.413 549.465 120.694C544.802 131.976 536.9 141.622 526.758 148.415C516.616 155.208 504.688 158.844 492.48 158.862C484.355 158.874 476.306 157.282 468.797 154.178C461.287 151.074 454.464 146.519 448.718 140.773C442.972 135.027 438.417 128.204 435.313 120.694C432.209 113.185 430.617 105.136 430.629 97.0103ZM536 97.0103C535.973 88.3868 533.39 79.9649 528.578 72.8091C523.765 65.6534 516.939 60.085 508.962 56.8079C500.986 53.5308 492.217 52.692 483.763 54.3977C475.31 56.1033 467.552 60.2768 461.471 66.3905C455.389 72.5042 451.256 80.2838 449.595 88.7458C447.933 97.2078 448.818 105.972 452.137 113.932C455.456 121.891 461.06 128.688 468.241 133.463C475.422 138.238 483.857 140.777 492.48 140.759C498.215 140.759 503.893 139.626 509.188 137.424C514.483 135.223 519.291 131.997 523.335 127.931C527.379 123.866 530.58 119.041 532.753 113.735C534.927 108.428 536.031 102.745 536 97.0103Z" fill="white"/>
<path d="M580.893 10.8824C580.88 8.03245 581.991 5.29243 583.985 3.25592C585.979 1.21942 588.694 0.050473 591.544 0.00239947C593.003 -0.0279276 594.454 0.229484 595.813 0.759898C597.172 1.29031 598.414 2.08335 599.467 3.09371C600.519 4.10407 601.363 5.31195 601.949 6.64836C602.535 7.98477 602.852 9.4235 602.881 10.8824C602.699 13.7866 601.432 16.5165 599.333 18.5314C597.233 20.5463 594.453 21.6994 591.544 21.7624C588.731 21.6044 586.079 20.4008 584.109 18.3878C582.138 16.3748 580.991 13.6978 580.893 10.8824ZM583.178 37.6253H600.184V156.162H583.178V37.6253Z" fill="white"/>
<path d="M637.076 94.0377C637.076 58.2434 660.436 36.4834 693.487 36.4834C726.539 36.4834 749.716 58.2434 749.716 94.0377V156.118H731.43V94.0377C731.43 68.4377 716.71 54.5863 693.35 54.5863C669.99 54.5863 655.042 68.8491 655.042 94.0377V156.118H636.756L637.076 94.0377Z" fill="white"/>
<path d="M219.176 69.0278L253.194 35.2881L264.534 46.5346L230.516 80.2741C228.279 82.4876 226.504 85.117 225.293 88.0119C224.082 90.9067 223.458 94.01 223.458 97.1441C223.458 100.278 224.082 103.381 225.293 106.276C226.504 109.171 228.279 111.8 230.516 114.014L264.534 147.753L253.194 159L219.176 125.26C216.945 123.042 214.294 121.281 211.375 120.08C208.456 118.879 205.327 118.261 202.168 118.261C199.008 118.261 195.879 118.879 192.96 120.08C190.041 121.281 187.39 123.042 185.159 125.26L151.141 159L139.845 147.71L173.863 113.971C176.1 111.757 177.875 109.128 179.086 106.233C180.297 103.338 180.92 100.235 180.92 97.1008C180.92 93.967 180.297 90.8635 179.086 87.9689C177.875 85.074 176.1 82.4446 173.863 80.2311L139.845 46.6639L151.184 35.4174L185.202 69.1571C189.725 73.6077 195.845 76.0946 202.216 76.0703C208.588 76.0461 214.688 73.5128 219.176 69.0278Z" fill="#222222"/>
<path d="M253.151 35.3337L219.133 69.0732C216.901 71.2921 214.25 73.0524 211.331 74.2535C208.413 75.4546 205.284 76.0728 202.124 76.0728C198.964 76.0728 195.835 75.4546 192.917 74.2535C189.998 73.0524 187.347 71.2921 185.115 69.0732L151.097 35.3337L139.845 46.6664L173.863 80.406C176.1 82.6195 177.875 85.2489 179.086 88.1436C180.297 91.0384 180.92 94.1416 180.92 97.2758C180.92 100.41 180.297 103.513 179.086 106.408C177.875 109.303 176.1 111.932 173.863 114.146L139.845 147.713L151.184 158.959L185.202 125.22C187.434 123.001 190.085 121.241 193.004 120.04C195.922 118.838 199.051 118.22 202.211 118.22C205.371 118.22 208.5 118.838 211.418 120.04C214.337 121.241 216.988 123.001 219.22 125.22L253.238 158.959L264.577 147.713L230.559 113.973C228.322 111.76 226.547 109.13 225.336 106.236C224.125 103.341 223.502 100.238 223.502 97.1035C223.502 93.9694 224.125 90.8662 225.336 87.9713C226.547 85.0764 228.322 82.447 230.559 80.2335L264.577 46.494L253.238 35.2475L253.151 35.3337Z" fill="#4718FF"/>
<path opacity="0.9" d="M264.665 45.0653L252.5 33L244.593 40.8424C238.894 46.5125 232.123 51.0112 224.667 54.0808C217.212 57.1505 209.219 58.7305 201.147 58.7305C193.075 58.7305 185.082 57.1505 177.627 54.0808C170.171 51.0112 163.4 46.5125 157.701 40.8424L149.925 33L137.76 45.0653L145.667 52.9077C151.384 58.56 155.92 65.2758 159.015 72.67C162.109 80.0643 163.703 87.9916 163.703 95.9978C163.703 104.004 162.109 111.931 159.015 119.326C155.92 126.72 151.384 133.436 145.667 139.088L137.76 146.93L149.925 158.996L157.832 151.153C163.531 145.483 170.302 140.984 177.757 137.915C185.212 134.845 193.205 133.265 201.277 133.265C209.349 133.265 217.342 134.845 224.798 137.915C232.253 140.984 239.024 145.483 244.723 151.153L252.63 158.996L264.795 146.93L256.888 139.088C251.171 133.436 246.635 126.72 243.54 119.326C240.445 111.931 238.852 104.004 238.852 95.9978C238.852 87.9916 240.445 80.0643 243.54 72.67C246.635 65.2758 251.171 58.56 256.888 52.9077L264.665 45.0653Z" fill="#6B50FF"/>
</svg>
