<svg width="140" height="36" viewBox="0 0 140 36" fill="none" xmlns="http://www.w3.org/2000/svg">
<g clip-path="url(#clip0_4690_51)">
<path d="M0 17.5689C0 11.2604 4.19148 5.89087 10.7049 5.89087C17.7732 5.89087 22.8525 11.0128 21.1623 19.097H3.67928C3.86685 21.0622 4.78295 22.8861 6.2474 24.2099C7.71184 25.5338 9.61863 26.2617 11.5927 26.2507C13.4537 26.2507 17.3037 25.2348 18.2769 23.5446L20.9403 25.619C18.7379 28.18 15.1013 29.2982 11.2086 29.2982C4.40489 29.2897 0 23.3226 0 17.5689ZM17.8586 16.1348C18.3622 13.3433 16.5013 8.93844 10.7903 8.93844C9.84986 8.94065 8.91919 9.12892 8.05187 9.49241C7.18455 9.8559 6.39772 10.3874 5.73673 11.0563C5.07574 11.7253 4.55365 12.5184 4.20053 13.39C3.84742 14.2616 3.67027 15.1944 3.67928 16.1348H17.8586Z" fill="white"/>
<path d="M57.0924 24.9701V36.9896H53.6777V18.2859C53.6811 16.0064 54.3599 13.7789 55.6285 11.885C56.8971 9.991 58.6984 8.51544 60.8051 7.64465C62.9118 6.77387 65.2293 6.54692 67.4648 6.99246C69.7004 7.43801 71.7538 8.53607 73.3657 10.1479C74.9776 11.7598 76.0757 13.8132 76.5212 16.0488C76.9668 18.2844 76.7398 20.6019 75.869 22.7086C74.9982 24.8152 73.5227 26.6166 71.6287 27.8852C69.7347 29.1537 67.5073 29.8326 65.2278 29.8359C63.5605 29.8265 61.9263 29.3701 60.4954 28.5143C59.0645 27.6585 57.8894 26.4345 57.0924 24.9701ZM57.0924 18.2859C57.089 19.8962 57.5631 21.4714 58.4548 22.8124C59.3465 24.1533 60.6157 25.1998 62.102 25.8196C63.5883 26.4393 65.225 26.6045 66.8052 26.2943C68.3854 25.9841 69.8381 25.2123 70.9798 24.0766C72.1215 22.9409 72.9008 21.4922 73.2193 19.9137C73.5378 18.3352 73.3812 16.6976 72.7692 15.2081C72.1573 13.7186 71.1175 12.4439 69.7812 11.5452C68.445 10.6465 66.8723 10.1641 65.2619 10.159C63.1053 10.1679 61.039 11.0257 59.51 12.5466C57.9811 14.0676 57.1126 16.1294 57.0924 18.2859Z" fill="white"/>
<path d="M80.4141 17.7825C80.4175 15.5029 81.0963 13.2755 82.3648 11.3815C83.6334 9.48758 85.4348 8.01202 87.5414 7.14123C89.6481 6.27045 91.9656 6.0435 94.2012 6.48904C96.4368 6.93459 98.4902 8.03265 100.102 9.64453C101.714 11.2564 102.812 13.3098 103.258 15.5454C103.703 17.781 103.476 20.0985 102.605 22.2051C101.735 24.3118 100.259 26.1132 98.365 27.3817C96.4711 28.6503 94.2437 29.3291 91.9641 29.3325C90.4467 29.3348 88.9438 29.0375 87.5414 28.4579C86.1391 27.8782 84.865 27.0276 83.792 25.9546C82.719 24.8816 81.8683 23.6075 81.2887 22.2051C80.709 20.8028 80.4118 19.2999 80.4141 17.7825ZM100.091 17.7825C100.086 16.1721 99.6035 14.5994 98.7048 13.2632C97.8061 11.9269 96.5315 10.8871 95.0419 10.2751C93.5524 9.66318 91.9148 9.50656 90.3363 9.82506C88.7578 10.1436 87.3091 10.9229 86.1734 12.0646C85.0377 13.2062 84.2659 14.659 83.9557 16.2392C83.6455 17.8194 83.8107 19.4561 84.4304 20.9424C85.0502 22.4287 86.0967 23.6979 87.4376 24.5896C88.7786 25.4813 90.3538 25.9554 91.9641 25.952C93.0349 25.952 94.0952 25.7404 95.084 25.3293C96.0728 24.9183 96.9706 24.3158 97.7258 23.5566C98.481 22.7975 99.0787 21.8965 99.4846 20.9056C99.8905 19.9147 100.097 18.8533 100.091 17.7825Z" fill="white"/>
<path d="M108.475 1.69915C108.472 1.16696 108.68 0.655291 109.052 0.274997C109.424 -0.105296 109.932 -0.323583 110.464 -0.33256C110.736 -0.338223 111.007 -0.290154 111.261 -0.191106C111.515 -0.0920571 111.746 0.0560327 111.943 0.244706C112.14 0.433379 112.297 0.658937 112.407 0.908496C112.516 1.15805 112.575 1.42672 112.581 1.69915C112.547 2.24149 112.31 2.75125 111.918 3.12751C111.526 3.50377 111.007 3.7191 110.464 3.73087C109.938 3.70137 109.443 3.4766 109.075 3.1007C108.707 2.72479 108.493 2.22489 108.475 1.69915ZM108.901 6.69307H112.077V28.8285H108.901V6.69307Z" fill="white"/>
<path d="M118.966 17.2273C118.966 10.5432 123.328 6.47974 129.5 6.47974C135.672 6.47974 140 10.5432 140 17.2273V28.82H136.586V17.2273C136.586 12.4468 133.837 9.86023 129.475 9.86023C125.112 9.86023 122.321 12.5237 122.321 17.2273V28.82H118.906L118.966 17.2273Z" fill="white"/>
<path d="M41.1992 12.8823L47.8833 6.19812L50.1114 8.42617L43.4272 15.1103C42.9877 15.5488 42.6389 16.0698 42.401 16.6432C42.163 17.2167 42.0405 17.8315 42.0405 18.4524C42.0405 19.0733 42.163 19.6881 42.401 20.2616C42.6389 20.8351 42.9877 21.356 43.4272 21.7945L50.1114 28.4787L47.8833 30.7067L41.1992 24.0226C40.7607 23.583 40.2398 23.2342 39.6663 22.9963C39.0928 22.7583 38.478 22.6359 37.8571 22.6359C37.2362 22.6359 36.6214 22.7583 36.0479 22.9963C35.4744 23.2342 34.9535 23.583 34.515 24.0226L27.8308 30.7067L25.6113 28.4701L32.2955 21.786C32.7351 21.3474 33.0838 20.8265 33.3218 20.2531C33.5597 19.6796 33.6822 19.0648 33.6822 18.4439C33.6822 17.823 33.5597 17.2082 33.3218 16.6347C33.0838 16.0612 32.7351 15.5403 32.2955 15.1018L25.6113 8.45178L27.8394 6.22373L34.5235 12.9079C35.4122 13.7897 36.6148 14.2823 37.8667 14.2775C39.1186 14.2727 40.3173 13.7708 41.1992 12.8823Z" fill="white"/>
<path d="M47.8748 6.20702L41.1906 12.8912C40.7521 13.3307 40.2312 13.6795 39.6577 13.9174C39.0842 14.1554 38.4694 14.2779 37.8486 14.2779C37.2277 14.2779 36.6129 14.1554 36.0394 13.9174C35.4659 13.6795 34.945 13.3307 34.5065 12.8912L27.8223 6.20702L25.6113 8.45214L32.2955 15.1363C32.7351 15.5748 33.0838 16.0957 33.3218 16.6692C33.5597 17.2427 33.6822 17.8575 33.6822 18.4784C33.6822 19.0993 33.5597 19.7141 33.3218 20.2876C33.0838 20.861 32.7351 21.382 32.2955 21.8205L25.6113 28.4705L27.8394 30.6985L34.5235 24.0144C34.9621 23.5748 35.483 23.2261 36.0565 22.9881C36.6299 22.7502 37.2447 22.6277 37.8656 22.6277C38.4865 22.6277 39.1013 22.7502 39.6748 22.9881C40.2483 23.2261 40.7692 23.5748 41.2077 24.0144L47.8919 30.6985L50.1199 28.4705L43.4358 21.7863C42.9962 21.3478 42.6475 20.8269 42.4095 20.2534C42.1716 19.6799 42.0491 19.0651 42.0491 18.4442C42.0491 17.8234 42.1716 17.2086 42.4095 16.6351C42.6475 16.0616 42.9962 15.5407 43.4358 15.1022L50.1199 8.418L47.8919 6.18994L47.8748 6.20702Z" fill="white"/>
<path opacity="0.9" d="M50.1366 8.28112L47.7464 5.89087L46.1927 7.44453C45.0729 8.56783 43.7424 9.45908 42.2776 10.0672C40.8127 10.6753 39.2422 10.9884 37.6561 10.9884C36.07 10.9884 34.4995 10.6753 33.0346 10.0672C31.5697 9.45908 30.2393 8.56783 29.1195 7.44453L27.5914 5.89087L25.2012 8.28112L26.7548 9.83478C27.8781 10.9546 28.7694 12.285 29.3775 13.7499C29.9856 15.2148 30.2987 16.7853 30.2987 18.3714C30.2987 19.9575 29.9856 21.528 29.3775 22.9929C28.7694 24.4578 27.8781 25.7882 26.7548 26.908L25.2012 28.4617L27.5914 30.8519L29.1451 29.2982C30.2649 28.1749 31.5953 27.2837 33.0602 26.6756C34.5251 26.0674 36.0956 25.7544 37.6817 25.7544C39.2678 25.7544 40.8383 26.0674 42.3032 26.6756C43.7681 27.2837 45.0985 28.1749 46.2183 29.2982L47.772 30.8519L50.1622 28.4617L48.6086 26.908C47.4853 25.7882 46.594 24.4578 45.9859 22.9929C45.3778 21.528 45.0647 19.9575 45.0647 18.3714C45.0647 16.7853 45.3778 15.2148 45.9859 13.7499C46.594 12.285 47.4853 10.9546 48.6086 9.83478L50.1366 8.28112Z" fill="#4BFFB9"/>
</g>
<defs>
<clipPath id="clip0_4690_51">
<rect width="140" height="36" fill="white"/>
</clipPath>
</defs>
</svg>
